<svg width="128" height="128" viewBox="0 0 128 128" xmlns="http://www.w3.org/2000/svg">
  <defs>
    <linearGradient id="fur" x1="0" y1="0" x2="1" y2="1"><stop stop-color="#FFFFFF"/><stop offset="1" stop-color="#CBD5EE"/></linearGradient>
    <linearGradient id="metal" x1="0" y1="0" x2="1" y2="1"><stop stop-color="#3F485F"/><stop offset="1" stop-color="#151A26"/></linearGradient>
    <filter id="glow"><feGaussianBlur stdDeviation="2.5" result="b"/><feMerge><feMergeNode in="b"/><feMergeNode in="SourceGraphic"/></feMerge></filter>
  </defs>
  <path d="M31 39 21 13 48 28C58 22 71 22 81 28L108 13 98 41C106 51 109 64 106 76 102 94 86 108 65 109 43 109 26 96 21 77 17 62 21 49 31 39Z" fill="url(#fur)" stroke="#8E69FF" stroke-width="3"/>
  <path d="M30 34 25 21 43 31Z" fill="#D7C5FF"/><path d="M99 34 104 21 86 31Z" fill="#D7C5FF"/>
  <path d="M44 58Q51 50 59 58Q52 68 44 58Z" fill="#67FF9E" filter="url(#glow)"/><path d="M70 58Q78 50 86 58Q78 68 70 58Z" fill="#67FF9E" filter="url(#glow)"/>
  <circle cx="52" cy="58" r="2.1" fill="#07110C"/><circle cx="78" cy="58" r="2.1" fill="#07110C"/>
  <path d="M58 73Q65 68 72 73L65 80Z" fill="#141926"/><path d="M52 84Q65 93 79 84" fill="none" stroke="#373E52" stroke-width="3" stroke-linecap="round"/>
  <path d="M85 85Q106 87 109 108Q98 117 85 105Z" fill="url(#metal)" stroke="#38D8FF" stroke-width="2"/>
  <circle cx="99" cy="101" r="5" fill="#32D8FF" filter="url(#glow)"/><path d="M90 91 103 105M89 104 102 91" stroke="#77829B" stroke-width="2"/>
  <path d="M25 82Q10 99 22 117Q38 115 43 102" fill="#111621" stroke="#8E69FF" stroke-width="2"/>
</svg>